<svg width="790" height="170" viewBox="0 0 790 170" fill="none" xmlns="http://www.w3.org/2000/svg">
<g clip-path="url(#clip0_126_2)">
<path d="M71.3193 76.272C74.7326 72.6913 77.4633 68.5953 79.5113 63.6425C81.5594 58.6965 82.5834 52.8938 82.5834 45.8997C82.5834 32.4203 78.4873 22.0129 70.2952 14.3361C62.1032 6.82672 49.8217 3.07202 33.2703 3.07202H0V166.191H32.9289C50.6717 166.191 63.9839 161.927 73.0259 153.394C82.068 144.861 86.5054 132.579 86.5054 116.195C86.5054 106.129 84.9727 97.9368 82.068 91.6254C79.17 85.3141 75.5826 80.194 71.1452 76.272H71.3193ZM28.4916 29.5156H32.4136C39.4076 29.5156 44.5277 30.8809 47.941 33.7789C51.3544 36.6769 53.0611 40.6057 53.0611 45.7257C53.0611 50.8458 51.1871 55.2831 47.4324 58.6965C43.6777 62.2772 38.3903 63.9839 31.9049 63.9839H28.6656V29.3482L28.4916 29.5156ZM50.5044 133.603C46.2411 137.525 39.4143 139.573 30.1982 139.573H28.4916V90.6014H32.5876C37.5336 90.6014 41.4624 91.2841 44.7017 92.4754C47.9411 93.8408 50.3304 95.3801 52.2111 97.5955C54.0851 99.6435 55.2831 102.033 55.9658 104.764C56.6485 107.494 56.9898 110.392 56.9898 113.297C56.9898 122.68 54.7745 129.333 50.5044 133.429V133.603Z" fill="#FFEBC2"/>
<path d="M170.113 72.1759C174.035 65.3492 176.083 56.8225 176.083 46.7497C176.083 39.923 175.059 33.7789 173.185 28.4916C171.311 23.0302 168.406 18.4255 164.484 14.6708C160.562 10.9161 155.442 8.01806 149.298 5.97004C143.154 4.09603 135.819 3.07202 127.459 3.07202H94.8716V166.191H123.37V92.1408L155.275 166.191H183.766L150.837 87.3621C159.712 84.29 166.024 79.17 170.12 72.35V72.1759H170.113ZM142.304 59.5465C139.406 62.6185 134.286 64.1512 126.777 64.1512H123.363V29.5156H125.92C133.597 29.5156 139.058 31.0482 141.956 34.1203C144.854 37.1923 146.393 41.4556 146.393 46.917C146.393 52.3784 145.028 56.6418 142.13 59.7138L142.297 59.5465H142.304Z" fill="#FFEBC2"/>
<path d="M501.986 23.3782C494.65 15.8688 486.291 10.2401 476.051 6.14406C465.811 2.04802 454.553 0 442.265 0C429.977 0 418.72 2.04802 408.48 6.14406C398.239 10.2401 389.539 15.7015 382.545 23.3782C375.035 30.7136 369.407 39.7557 365.652 49.8284C363.604 55.2898 361.897 61.4339 360.706 67.5713H342.106C341.256 61.4272 339.55 55.2831 337.502 49.8284C333.747 39.5883 327.944 30.5463 320.609 23.3782C313.273 15.8688 304.914 10.2401 294.674 6.14406C284.434 2.04802 273.176 0 260.888 0C248.6 0 237.343 2.04802 227.103 6.14406C216.863 10.2401 208.162 15.7015 201.168 23.3782C193.832 30.7136 188.03 39.7557 184.275 49.8284C180.179 60.2359 178.131 72.0086 178.131 84.4641C178.131 96.9195 180.179 108.692 184.275 119.1C188.03 129.34 193.832 138.382 201.168 145.55C208.162 153.059 216.863 158.855 227.103 162.951C237.343 167.047 248.433 169.095 260.888 169.095C273.344 169.095 284.434 167.047 294.674 162.951C304.914 158.855 313.273 153.053 320.609 145.55C327.944 138.215 333.747 129.172 337.502 119.1C339.55 113.638 341.256 107.494 342.106 101.357H360.706C361.904 107.501 363.604 113.638 365.652 119.1C369.407 129.34 375.035 138.382 382.545 145.55C389.539 153.059 398.239 158.855 408.48 162.951C418.72 167.047 429.81 169.095 442.265 169.095C454.721 169.095 465.811 167.047 476.051 162.951C486.291 158.855 494.65 153.053 501.986 145.55C509.321 138.215 515.124 129.172 518.878 119.1C522.975 108.692 524.681 96.9195 524.681 84.4641C524.681 72.0086 522.975 60.2359 518.878 49.8284C515.124 39.5883 509.321 30.5463 501.986 23.3782ZM306.788 106.303C304.399 112.788 301.159 118.591 296.722 123.196C292.285 127.8 287.164 131.555 280.853 134.118C274.883 136.508 268.056 137.873 260.721 137.873C253.386 137.873 246.559 136.508 240.589 134.118C234.277 131.729 229.157 127.807 224.894 123.196C220.457 118.591 217.217 112.788 214.828 106.303C212.439 99.8175 211.247 92.4821 211.247 84.4641C211.247 76.446 212.271 69.2779 214.828 62.6252C217.217 56.1398 220.457 50.3371 224.894 45.7324C229.157 41.1277 234.451 37.373 240.589 34.8096C246.559 32.4203 253.386 31.0549 260.721 31.0549C268.056 31.0549 274.883 32.4203 280.853 34.8096C287.164 37.199 292.285 41.121 296.722 45.7324C300.985 50.3371 304.399 56.1398 306.788 62.6252C309.177 69.1106 310.369 76.446 310.369 84.4641C310.369 92.4821 309.345 99.6502 306.788 106.303ZM488.165 106.303C485.776 112.788 482.362 118.591 478.099 123.196C473.835 127.8 468.541 131.555 462.404 134.118C456.434 136.508 449.607 137.873 442.272 137.873C434.936 137.873 428.11 136.508 422.14 134.118C415.828 131.729 410.708 127.807 406.438 123.196C402.001 118.591 398.761 112.788 396.372 106.303C393.983 99.8175 392.791 92.4821 392.791 84.4641C392.791 76.446 393.815 69.2779 396.372 62.6252C398.761 56.1398 402.001 50.3371 406.438 45.7324C410.876 41.1277 415.996 37.373 422.14 34.8096C428.11 32.4203 434.936 31.0549 442.272 31.0549C449.607 31.0549 456.434 32.4203 462.404 34.8096C468.715 37.199 473.835 41.121 478.099 45.7324C482.362 50.3371 485.776 56.1398 488.165 62.6252C490.554 69.1106 491.746 76.446 491.746 84.4641C491.746 92.4821 490.722 99.6502 488.165 106.303Z" fill="#FFEBC2"/>
<path d="M588.658 85.14L560.167 3.07202H531.501V166.017H560.167V83.9487L588.658 166.017H617.156V3.07202H588.658V85.14Z" fill="#FFEBC2"/>
<path d="M784.03 49.9958C780.101 39.5883 774.473 30.7136 767.304 23.3782C759.969 16.0428 751.268 10.2401 741.202 6.14406C731.136 2.04802 719.872 0 707.417 0C694.961 0 683.871 2.04802 673.631 6.14406C663.565 10.2401 654.864 16.0428 647.529 23.3782C640.193 30.7136 634.732 39.7557 630.636 49.9958C626.54 60.2359 624.666 71.8346 624.666 84.4641C624.666 97.0935 626.714 108.525 630.636 118.932C634.558 129.34 640.193 138.215 647.529 145.55C654.864 152.885 663.398 158.688 673.631 162.784C683.697 166.88 694.961 168.928 707.417 168.928C719.872 168.928 730.962 166.88 741.202 162.784C751.436 158.688 759.969 153.059 767.304 145.55C774.473 138.215 780.101 129.172 784.03 118.932C787.952 108.525 790 97.0935 790 84.4641C790 71.8346 788.126 60.2359 784.03 49.9958ZM753.316 106.303C750.927 112.788 747.688 118.417 743.25 123.196C738.813 127.974 733.693 131.555 727.723 134.118C721.753 136.675 714.926 137.873 707.417 137.873C699.907 137.873 693.255 136.682 687.285 134.118C681.14 131.562 676.02 127.974 671.583 123.196C667.152 118.417 663.906 112.956 661.517 106.303C659.128 99.6502 657.936 92.4821 657.936 84.4641C657.936 76.446 659.134 69.1106 661.517 62.6252C663.906 56.1398 667.146 50.5111 671.583 45.7324C676.02 41.1277 681.14 37.373 687.285 34.8096C693.429 32.253 700.081 31.0549 707.417 31.0549C714.752 31.0549 721.753 32.2463 727.723 34.8096C733.693 37.3663 738.98 40.9537 743.25 45.7324C747.688 50.5111 750.927 55.9725 753.316 62.6252C755.706 69.1106 756.897 76.446 756.897 84.4641C756.897 92.4821 755.706 99.6502 753.316 106.303Z" fill="#FFEBC2"/>
</g>
<defs>
<clipPath id="clip0_126_2">
<rect width="790" height="169.089" fill="white"/>
</clipPath>
</defs>
</svg>
