<svg width="347" height="170" viewBox="0 0 347 170" fill="none" xmlns="http://www.w3.org/2000/svg">
<path d="M323.855 23.3782C316.519 15.8688 308.16 10.2401 297.92 6.14406C287.68 2.04802 276.422 0 264.134 0C251.846 0 240.589 2.04802 230.349 6.14406C220.109 10.2401 211.408 15.7015 204.414 23.3782C196.904 30.7136 191.276 39.7557 187.521 49.8284C185.473 55.2898 183.766 61.4339 182.575 67.5713H163.975C163.125 61.4272 161.419 55.2831 159.371 49.8284C155.616 39.5883 149.813 30.5463 142.478 23.3782C135.143 15.8688 126.783 10.2401 116.543 6.14406C106.303 2.04802 95.0455 0 82.7574 0C70.4693 0 59.2119 2.04802 48.9718 6.14406C38.7317 10.2401 30.0309 15.7015 23.0369 23.3782C15.7015 30.7136 9.89876 39.7557 6.14405 49.8284C2.04801 60.2359 0 72.0086 0 84.4641C0 96.9195 2.04801 108.692 6.14405 119.1C9.89876 129.34 15.7015 138.382 23.0369 145.55C30.0309 153.059 38.7317 158.855 48.9718 162.951C59.2119 167.047 70.3019 169.095 82.7574 169.095C95.2128 169.095 106.303 167.047 116.543 162.951C126.783 158.855 135.143 153.053 142.478 145.55C149.813 138.215 155.616 129.172 159.371 119.1C161.419 113.638 163.125 107.494 163.975 101.357H182.575C183.773 107.501 185.473 113.638 187.521 119.1C191.276 129.34 196.904 138.382 204.414 145.55C211.408 153.059 220.109 158.855 230.349 162.951C240.589 167.047 251.679 169.095 264.134 169.095C276.59 169.095 287.68 167.047 297.92 162.951C308.16 158.855 316.519 153.053 323.855 145.55C331.19 138.215 336.993 129.172 340.748 119.1C344.844 108.692 346.55 96.9195 346.55 84.4641C346.55 72.0086 344.844 60.2359 340.748 49.8284C336.993 39.5883 331.19 30.5463 323.855 23.3782ZM128.657 106.303C126.268 112.788 123.028 118.591 118.591 123.196C114.154 127.8 109.034 131.555 102.722 134.118C96.7522 136.508 89.9254 137.873 82.5901 137.873C75.2547 137.873 68.4279 136.508 62.4579 134.118C56.1465 131.729 51.0265 127.807 46.7631 123.196C42.3257 118.591 39.0864 112.788 36.697 106.303C34.3077 99.8175 33.1163 92.4821 33.1163 84.4641C33.1163 76.446 34.1404 69.2779 36.697 62.6252C39.0864 56.1398 42.3257 50.3371 46.7631 45.7324C51.0265 41.1277 56.3205 37.373 62.4579 34.8096C68.4279 32.4203 75.2547 31.0549 82.5901 31.0549C89.9254 31.0549 96.7522 32.4203 102.722 34.8096C109.034 37.199 114.154 41.121 118.591 45.7324C122.854 50.3371 126.268 56.1398 128.657 62.6252C131.046 69.1106 132.238 76.446 132.238 84.4641C132.238 92.4821 131.214 99.6502 128.657 106.303ZM310.034 106.303C307.645 112.788 304.231 118.591 299.968 123.196C295.705 127.8 290.41 131.555 284.273 134.118C278.303 136.508 271.476 137.873 264.141 137.873C256.806 137.873 249.979 136.508 244.009 134.118C237.697 131.729 232.577 127.807 228.307 123.196C223.87 118.591 220.631 112.788 218.241 106.303C215.852 99.8175 214.661 92.4821 214.661 84.4641C214.661 76.446 215.685 69.2779 218.241 62.6252C220.631 56.1398 223.87 50.3371 228.307 45.7324C232.745 41.1277 237.865 37.373 244.009 34.8096C249.979 32.4203 256.806 31.0549 264.141 31.0549C271.476 31.0549 278.303 32.4203 284.273 34.8096C290.585 37.199 295.705 41.121 299.968 45.7324C304.231 50.3371 307.645 56.1398 310.034 62.6252C312.423 69.1106 313.615 76.446 313.615 84.4641C313.615 92.4821 312.591 99.6502 310.034 106.303Z" fill="#0559C6"/>
</svg>
