<svg width="798" height="170" viewBox="0 0 798 170" fill="none" xmlns="http://www.w3.org/2000/svg">
<g clip-path="url(#clip0_29_19)">
<path d="M72.0415 76.6831C75.4894 73.0831 78.2478 68.965 80.3165 63.9856C82.3853 59.0129 83.4197 53.1789 83.4197 46.1471C83.4197 32.595 79.2821 22.1315 71.0071 14.4134C62.7321 6.86356 50.3263 3.08862 33.6072 3.08862H0V167.086H33.2624C51.1849 167.086 64.6318 162.8 73.7654 154.221C82.8991 145.641 87.3814 133.294 87.3814 116.821C87.3814 106.701 85.8332 98.4647 82.8991 92.1193C79.9717 85.7739 76.348 80.6262 71.8657 76.6831H72.0415ZM28.7801 29.6747H32.7418C39.8067 29.6747 44.9786 31.0474 48.4265 33.961C51.8745 36.8746 53.5984 40.8245 53.5984 45.9722C53.5984 51.1198 51.7055 55.5811 47.9127 59.0129C44.12 62.6128 38.7791 64.3287 32.228 64.3287H28.9559V29.5064L28.7801 29.6747ZM51.0159 134.323C46.7093 138.266 39.8135 140.325 30.5041 140.325H28.7801V91.0897H32.9176C37.9137 91.0897 41.8822 91.7761 45.1544 92.9738C48.4265 94.3465 50.8401 95.8942 52.7398 98.1215C54.6328 100.181 55.843 102.583 56.5326 105.328C57.2221 108.074 57.5669 110.987 57.5669 113.908C57.5669 123.342 55.3292 130.03 51.0159 134.148V134.323Z" fill="#0559C6"/>
<path d="M171.835 72.565C175.797 65.7014 177.866 57.1288 177.866 47.0017C177.866 40.1382 176.832 33.961 174.939 28.6451C173.046 23.1543 170.112 18.5248 166.15 14.7499C162.188 10.9749 157.016 8.06131 150.81 6.00226C144.604 4.11815 137.194 3.08862 128.75 3.08862H95.8323V167.086H124.619V92.6374L156.847 167.086H185.627L152.365 87.8329C161.329 84.7443 167.705 79.5967 171.842 72.7399V72.565H171.835ZM143.745 59.8674C140.818 62.956 135.646 64.4969 128.06 64.4969H124.612V29.6747H127.195C134.949 29.6747 140.466 31.2156 143.393 34.3042C146.321 37.3928 147.876 41.6791 147.876 47.1699C147.876 52.6607 146.497 56.9471 143.569 60.0357L143.738 59.8674H143.745Z" fill="#0559C6"/>
<path d="M507.069 23.5042C499.659 15.9543 491.215 10.2953 480.871 6.17717C470.528 2.05906 459.156 0 446.744 0C434.331 0 422.96 2.05906 412.616 6.17717C402.272 10.2953 393.483 15.7861 386.418 23.5042C378.833 30.8791 373.147 39.9699 369.354 50.097C367.286 55.5878 365.562 61.765 364.358 67.9354H345.571C344.712 61.7582 342.988 55.5811 340.919 50.097C337.126 39.8017 331.265 30.7109 323.855 23.5042C316.446 15.9543 308.002 10.2953 297.658 6.17717C287.314 2.05906 275.943 0 263.53 0C251.117 0 239.746 2.05906 229.402 6.17717C219.058 10.2953 210.27 15.7861 203.205 23.5042C195.795 30.8791 189.934 39.9699 186.141 50.097C182.003 60.5605 179.935 72.3967 179.935 84.9193C179.935 97.4418 182.003 109.278 186.141 119.742C189.934 130.037 195.795 139.128 203.205 146.334C210.27 153.884 219.058 159.711 229.402 163.83C239.746 167.948 250.948 170.007 263.53 170.007C276.112 170.007 287.314 167.948 297.658 163.83C308.002 159.711 316.446 153.877 323.855 146.334C331.265 138.959 337.126 129.869 340.919 119.742C342.988 114.251 344.712 108.074 345.571 101.903H364.358C365.569 108.08 367.286 114.251 369.354 119.742C373.147 130.037 378.833 139.128 386.418 146.334C393.483 153.884 402.272 159.711 412.616 163.83C422.96 167.948 434.162 170.007 446.744 170.007C459.325 170.007 470.528 167.948 480.871 163.83C491.215 159.711 499.659 153.877 507.069 146.334C514.479 138.959 520.34 129.869 524.133 119.742C528.27 109.278 529.994 97.4418 529.994 84.9193C529.994 72.3967 528.27 60.5605 524.133 50.097C520.34 39.8017 514.479 30.7109 507.069 23.5042ZM309.895 106.876C307.481 113.396 304.209 119.23 299.727 123.86C295.244 128.489 290.072 132.264 283.697 134.841C277.667 137.244 270.771 138.616 263.361 138.616C255.951 138.616 249.055 137.244 243.025 134.841C236.65 132.439 231.478 128.496 227.171 123.86C222.689 119.23 219.417 113.396 217.003 106.876C214.59 100.355 213.386 92.9805 213.386 84.9193C213.386 76.858 214.421 69.6513 217.003 62.9627C219.417 56.4424 222.689 50.6084 227.171 45.9789C231.478 41.3494 236.825 37.5744 243.025 34.9972C249.055 32.595 255.951 31.2223 263.361 31.2223C270.771 31.2223 277.667 32.595 283.697 34.9972C290.072 37.3995 295.244 41.3426 299.727 45.9789C304.033 50.6084 307.481 56.4424 309.895 62.9627C312.308 69.4831 313.512 76.858 313.512 84.9193C313.512 92.9805 312.477 100.187 309.895 106.876ZM493.108 106.876C490.695 113.396 487.247 119.23 482.94 123.86C478.634 128.489 473.286 132.264 467.086 134.841C461.056 137.244 454.16 138.616 446.75 138.616C439.341 138.616 432.445 137.244 426.414 134.841C420.039 132.439 414.867 128.496 410.554 123.86C406.072 119.23 402.799 113.396 400.386 106.876C397.972 100.355 396.769 92.9805 396.769 84.9193C396.769 76.858 397.803 69.6513 400.386 62.9627C402.799 56.4424 406.072 50.6084 410.554 45.9789C415.036 41.3494 420.208 37.5744 426.414 34.9972C432.445 32.595 439.341 31.2223 446.75 31.2223C454.16 31.2223 461.056 32.595 467.086 34.9972C473.462 37.3995 478.634 41.3426 482.94 45.9789C487.247 50.6084 490.695 56.4424 493.108 62.9627C495.522 69.4831 496.725 76.858 496.725 84.9193C496.725 92.9805 495.691 100.187 493.108 106.876Z" fill="#0559C6"/>
<path d="M594.619 85.5989L565.839 3.08862H536.883V166.911H565.839V84.4012L594.619 166.911H623.406V3.08862H594.619V85.5989Z" fill="#0559C6"/>
<path d="M791.969 50.2652C788.001 39.8017 782.315 30.8791 775.075 23.5042C767.665 16.1293 758.876 10.2953 748.708 6.17717C738.54 2.05906 727.162 0 714.58 0C701.999 0 690.796 2.05906 680.453 6.17717C670.285 10.2953 661.496 16.1293 654.086 23.5042C646.676 30.8791 641.16 39.9699 637.022 50.2652C632.885 60.5605 630.992 72.2217 630.992 84.9193C630.992 97.6168 633.06 109.11 637.022 119.573C640.984 130.037 646.676 138.959 654.086 146.334C661.496 153.709 670.116 159.543 680.453 163.661C690.621 167.779 701.999 169.839 714.58 169.839C727.162 169.839 738.364 167.779 748.708 163.661C759.045 159.543 767.665 153.884 775.075 146.334C782.315 138.959 788.001 129.869 791.969 119.573C795.931 109.11 798 97.6168 798 84.9193C798 72.2217 796.107 60.5605 791.969 50.2652ZM760.945 106.876C758.531 113.396 755.259 119.055 750.777 123.86C746.295 128.664 741.123 132.264 735.092 134.841C729.062 137.412 722.166 138.616 714.58 138.616C706.995 138.616 700.275 137.418 694.244 134.841C688.038 132.271 682.866 128.664 678.384 123.86C673.908 119.055 670.629 113.564 668.216 106.876C665.802 100.187 664.599 92.9805 664.599 84.9193C664.599 76.858 665.809 69.4831 668.216 62.9627C670.629 56.4424 673.902 50.7833 678.384 45.9789C682.866 41.3494 688.038 37.5744 694.244 34.9972C700.451 32.4268 707.171 31.2223 714.58 31.2223C721.99 31.2223 729.062 32.42 735.092 34.9972C741.123 37.5677 746.464 41.1744 750.777 45.9789C755.259 50.7833 758.531 56.2741 760.945 62.9627C763.358 69.4831 764.562 76.858 764.562 84.9193C764.562 92.9805 763.358 100.187 760.945 106.876Z" fill="#0559C6"/>
</g>
<defs>
<clipPath id="clip0_29_19">
<rect width="798" height="170" fill="white"/>
</clipPath>
</defs>
</svg>
